<?xml version="1.0" encoding="UTF-8"?>
<svg id="_Слой_1" data-name="Слой_1" xmlns="http://www.w3.org/2000/svg" viewBox="0 0 584.32 568.31">
  <defs>
    <style>
      .cls-1 {
        fill: #fff;
      }

      .cls-2 {
        fill: #ffdb5d;
      }

      .cls-3 {
        fill: #f5c34b;
      }
    </style>
  </defs>
  <ellipse class="cls-2" cx="292.16" cy="284.15" rx="115.22" ry="112.03"/>
  <path class="cls-3" d="M584.17,284.31l-192.85,11.23c-24.84,1.45-36.89,31.05-20.12,49.43l127.58,139.86c.13.15-.07.35-.22.23l-145.83-125.77c-18.52-15.97-47.31-3.84-48.81,20.57l-11.6,188.3c-.01.2-.3.2-.31,0l-11.6-188.3c-1.5-24.4-30.3-36.54-48.81-20.57l-145.83,125.77c-.15.13-.35-.08-.22-.23l127.58-139.86c16.77-18.38,4.72-47.99-20.12-49.43L.15,284.31c-.2-.01-.2-.3,0-.31l192.85-11.23c24.84-1.45,36.89-31.05,20.12-49.43L85.54,83.47c-.13-.15.07-.35.22-.23l145.83,125.77c18.52,15.97,47.31,3.84,48.81-20.57L292,.15c.01-.2.3-.2.31,0l11.6,188.3c1.5,24.4,30.3,36.54,48.81,20.57l145.83-125.77c.15-.13.35.08.22.23l-127.58,139.86c-16.77,18.38-4.72,47.99,20.12,49.43l192.85,11.23c.2.01.2.3,0,.31Z"/>
  <path class="cls-3" d="M201.5,66.25l61.31,125.7c11.93,24.45,46.77,24.45,58.7,0l61.31-125.7c1.11-2.27,4.54-.81,3.67,1.56l-47.32,129.04c-9.48,25.86,15.33,51.12,41.35,42.09l133.45-46.27c2.39-.83,3.79,2.64,1.49,3.7l-126.06,58.13c-25.31,11.67-25.31,47.63,0,59.3l126.06,58.13c2.3,1.06.9,4.53-1.49,3.7l-133.45-46.27c-26.02-9.02-50.84,16.24-41.35,42.09l47.32,129.04c.87,2.37-2.56,3.84-3.67,1.56l-61.31-125.7c-11.93-24.45-46.77-24.45-58.7,0l-61.31,125.7c-1.11,2.27-4.54.81-3.67-1.56l47.32-129.04c9.48-25.86-15.33-51.12-41.35-42.09l-133.45,46.27c-2.39.83-3.79-2.64-1.49-3.7l126.06-58.13c25.31-11.67,25.31-47.63,0-59.3l-126.06-58.13c-2.3-1.06-.9-4.53,1.49-3.7l133.45,46.27c26.02,9.02,50.84-16.24,41.35-42.09l-47.32-129.04c-.87-2.37,2.56-3.84,3.67-1.56Z"/>
  <path class="cls-3" d="M260.07,130.78l19.98,51.12c4.16,10.64,19.24,10.57,23.3-.1l19.52-51.28-1.65,54.28c-.35,11.45,13.62,17.29,21.52,8.99l38.25-40.15-22.67,49.08c-4.84,10.47,5.9,21.35,16.43,16.64l50.85-22.73-40.03,36.69c-8.56,7.85-2.71,22.12,8.9,21.69l55.41-2.06-51.46,19.02c-10.93,4.04-10.86,19.52.1,23.46l51.64,18.58-55.42-1.59c-11.61-.33-17.35,13.99-8.72,21.76l40.35,36.35-51.04-22.29c-10.58-4.62-21.22,6.35-16.29,16.78l23.11,48.88-38.61-39.82c-7.98-8.23-21.89-2.27-21.44,9.18l2.13,54.25-19.98-51.12c-4.16-10.64-19.24-10.57-23.3.1l-19.52,51.28,1.65-54.28c.35-11.45-13.62-17.29-21.52-8.99l-38.25,40.15,22.67-49.08c4.84-10.47-5.9-21.35-16.43-16.64l-50.85,22.73,40.03-36.69c8.56-7.85,2.71-22.12-8.9-21.69l-55.41,2.06,51.46-19.02c10.93-4.04,10.86-19.52-.1-23.46l-51.64-18.58,55.42,1.59c11.61.33,17.35-13.99,8.72-21.76l-40.35-36.35,51.04,22.29c10.58,4.62,21.22-6.35,16.29-16.78l-23.11-48.88,38.61,39.82c7.98,8.23,21.89,2.27,21.44-9.18l-2.13-54.25Z"/>
  <ellipse class="cls-1" cx="292.16" cy="284.15" rx="101.46" ry="98.65"/>
  <polygon class="cls-3" points="292.16 225.97 298.36 276.8 451.08 284.16 298.36 291.51 292.16 342.34 285.96 291.51 243.13 284.15 285.96 276.8 292.16 225.97"/>
  <polygon class="cls-3" points="315.38 261.58 299.82 284.16 315.38 306.73 292.16 291.6 268.94 306.73 284.51 284.16 268.94 261.58 292.16 276.71 315.38 261.58"/>
</svg>